<svg id="svg" xmlns="http://www.w3.org/2000/svg" xmlns:xlink="http://www.w3.org/1999/xlink" width="400" height="400" viewBox="0, 0, 400,400"><g id="svgg"><path id="path0" d="M176.296 13.272 C 117.175 18.411,57.801 59.883,28.594 116.439 C -21.804 214.030,22.286 337.494,123.049 380.935 C 149.034 392.138,152.593 389.761,152.593 361.201 L 152.593 341.154 134.444 341.248 C 106.280 341.394,98.681 336.836,85.447 311.860 C 82.858 306.976,76.217 298.363,70.688 292.721 C 60.331 282.152,59.906 280.033,68.148 280.055 C 75.819 280.076,83.741 285.514,96.708 299.661 C 119.593 324.631,147.936 328.914,155.554 308.554 C 157.205 304.139,160.206 298.100,162.222 295.133 C 166.776 288.431,167.096 288.674,147.407 283.903 C 107.872 274.322,87.342 253.942,82.107 219.078 C 77.476 188.237,80.450 169.725,93.109 150.596 C 96.766 145.070,96.928 143.923,96.981 123.093 C 97.072 87.778,103.994 85.325,142.415 106.999 L 152.196 112.516 162.394 110.436 C 184.593 105.909,226.316 106.307,242.699 111.203 C 247.819 112.733,248.865 112.420,260.000 106.027 C 283.462 92.557,299.534 89.845,302.301 98.889 C 304.820 107.124,305.763 128.782,303.897 135.540 C 302.369 141.075,302.613 141.949,308.317 151.390 C 317.852 167.171,320.432 176.986,320.513 197.778 C 320.711 248.302,296.737 276.257,244.815 286.047 C 239.722 287.007,235.556 288.098,235.556 288.471 C 235.556 288.843,237.889 293.321,240.741 298.420 C 245.748 307.375,245.926 308.225,245.926 323.240 C 245.926 331.792,246.362 348.867,246.895 361.186 L 247.865 383.583 252.714 385.884 C 258.539 388.648,264.186 387.126,284.265 377.379 C 394.803 323.724,427.368 179.238,350.289 84.444 C 306.529 30.628,248.712 6.977,176.296 13.272 " stroke="none" fill="#000000" fill-rule="evenodd"></path></g></svg>